<svg width="25" height="11" viewBox="0 0 25 11" fill="none" xmlns="http://www.w3.org/2000/svg">
<path fill-rule="evenodd" clip-rule="evenodd" d="M12.9717 9H4.02869C3.18469 9 2.49969 8.316 2.49969 7.472V3.528C2.49969 2.685 3.18469 2 4.02869 2H12.9717C13.8157 2 14.4997 2.685 14.4997 3.528V7.472C14.4997 8.316 13.8157 9 12.9717 9Z" fill="black"/>
<path opacity="0.5" fill-rule="evenodd" clip-rule="evenodd" d="M21.5 8.415C21.5 9.29 20.79 10 19.915 10H3.085C2.21 10 1.5 9.29 1.5 8.415V2.585C1.5 1.71 2.21 1 3.085 1H19.915C20.79 1 21.5 1.71 21.5 2.585V8.415ZM20.245 0H2.755C1.51 0 0.5 1.01 0.5 2.255V8.745C0.5 9.99 1.51 11 2.755 11H20.245C21.49 11 22.5 9.99 22.5 8.745V2.255C22.5 1.01 21.49 0 20.245 0Z" fill="black"/>
<path opacity="0.5" fill-rule="evenodd" clip-rule="evenodd" d="M23.25 7.5V3.5C24.078 3.5 24.75 4.172 24.75 5V6C24.75 6.829 24.078 7.5 23.25 7.5Z" fill="black"/>
</svg>
