<svg width="22" height="22" viewBox="0 0 22 22" fill="none" xmlns="http://www.w3.org/2000/svg">
<path fill-rule="evenodd" clip-rule="evenodd" d="M22 16C22 16.6 21.6 17 21 17H1C0.4 17 0 16.6 0 16C0 15.4 0.4 15 1 15C2.1 15 3 14.1 3 13V8C3 3.6 6.6 0 11 0C15.4 0 19 3.6 19 8V13C19 14.1 19.9 15 21 15C21.6 15 22 15.4 22 16ZM13.6 20.5C13 21.5 12 22 11 22C10.5 22 10 21.9 9.5 21.6C9 21.3 8.7 21 8.4 20.5C8.1 20 8.3 19.4 8.8 19.1C9.3 18.8 9.9 19 10.2 19.5C10.2303 19.5303 10.2605 19.5697 10.2936 19.6128L10.2936 19.6128C10.3697 19.7119 10.4606 19.8303 10.6 19.9C11.1 20.2 11.7 20 12 19.5C12.3 19 12.9 18.9 13.4 19.1C13.9 19.3 13.9 20 13.6 20.5ZM17 13C17 13.7 17.2 14.4 17.5 15H4.5C4.8 14.4 5 13.7 5 13V8C5 4.7 7.7 2 11 2C14.3 2 17 4.7 17 8V13Z" fill="black"/>
</svg>
