<svg width="13" height="22" viewBox="0 0 13 22" fill="none" xmlns="http://www.w3.org/2000/svg">
<path fill-rule="evenodd" clip-rule="evenodd" d="M12.9609 5C12.9609 5.6 12.5621 6 11.9639 6H8.97292V8H11.9639C12.263 8 12.5621 8 12.7615 8.3C12.9609 8.6 13.0606 8.9 12.9609 9.2L11.9639 13.2C11.8642 13.7 11.4654 14 10.9669 14H8.97292V21C8.97292 21.6 8.57413 22 7.97593 22H3.98797C3.38977 22 2.99097 21.6 2.99097 21V14H0.996991C0.398796 14 0 13.6 0 13V9C0 8.4 0.398796 8 0.996991 8H2.99097V6C2.99097 2.7 5.68285 0 8.97292 0H11.9639C12.5621 0 12.9609 0.4 12.9609 1V5ZM10.6678 10H7.97593C7.37774 10 6.97894 9.6 6.97894 9V6C6.97894 4.9 7.87623 4 8.97292 4H10.9669V2H8.97292C6.77954 2 4.98496 3.8 4.98496 6V9C4.98496 9.6 4.58616 10 3.98797 10H1.99398V12H3.98797C4.58616 12 4.98496 12.4 4.98496 13V20H6.97894V13C6.97894 12.4 7.37774 12 7.97593 12H10.1693L10.6678 10Z" fill="#E9F4FF"/>
</svg>
