<svg width="15" height="13" viewBox="0 0 15 13" fill="none" xmlns="http://www.w3.org/2000/svg">
<path fill-rule="evenodd" clip-rule="evenodd" d="M12.782 0.917297H2.55639C1.46993 0.917297 0.639099 1.74812 0.639099 2.83459V10.5038C0.639099 11.5902 1.46993 12.4211 2.55639 12.4211H12.782C13.8684 12.4211 14.6992 11.5902 14.6992 10.5038V2.83459C14.6992 1.74812 13.8684 0.917297 12.782 0.917297ZM2.55639 2.19549H12.782C13.0376 2.19549 13.2293 2.32331 13.3571 2.57895L7.66917 6.54135L1.9812 2.57895C2.10902 2.32331 2.30075 2.19549 2.55639 2.19549ZM2.55639 11.1429H12.782C13.1654 11.1429 13.4211 10.8872 13.4211 10.5038V4.04887L8.05263 7.81955C7.92481 7.88345 7.79699 7.94736 7.66917 7.94736C7.54135 7.94736 7.41353 7.88345 7.28571 7.81955L1.91729 4.04887V10.5038C1.91729 10.8872 2.17293 11.1429 2.55639 11.1429Z" fill="#1B1B50"/>
</svg>
