<svg width="17" height="11" viewBox="0 0 17 11" fill="none" xmlns="http://www.w3.org/2000/svg">
<path opacity="0.5" fill-rule="evenodd" clip-rule="evenodd" d="M14.9326 0.40625H15.8516C16.4856 0.40625 16.9996 0.92125 16.9996 1.55525V9.82525C16.9996 10.4592 16.4856 10.9742 15.8516 10.9742H14.9326C14.2976 10.9742 13.7846 10.4592 13.7846 9.82525V1.55525C13.7846 0.92125 14.2976 0.40625 14.9326 0.40625Z" fill="black"/>
<path fill-rule="evenodd" clip-rule="evenodd" d="M10.3379 2.70361H11.2569C11.8919 2.70361 12.4049 3.21761 12.4049 3.85261V9.82561C12.4049 10.4596 11.8919 10.9746 11.2569 10.9746H10.3379C9.70287 10.9746 9.18987 10.4596 9.18987 9.82561V3.85261C9.18987 3.21761 9.70287 2.70361 10.3379 2.70361Z" fill="black"/>
<path fill-rule="evenodd" clip-rule="evenodd" d="M5.74317 5.00098H6.66217C7.29717 5.00098 7.81017 5.51498 7.81017 6.14898V9.82498C7.81017 10.459 7.29717 10.974 6.66217 10.974H5.74317C5.10817 10.974 4.59517 10.459 4.59517 9.82498V6.14898C4.59517 5.51498 5.10817 5.00098 5.74317 5.00098Z" fill="black"/>
<path fill-rule="evenodd" clip-rule="evenodd" d="M1.14837 6.37939H2.06737C2.70237 6.37939 3.21537 6.89339 3.21537 7.52739V9.82539C3.21537 10.4594 2.70237 10.9744 2.06737 10.9744H1.14837C0.514366 10.9744 0.000366211 10.4594 0.000366211 9.82539V7.52739C0.000366211 6.89339 0.514366 6.37939 1.14837 6.37939Z" fill="black"/>
</svg>
