<svg width="24" height="20" viewBox="0 0 24 20" fill="none" xmlns="http://www.w3.org/2000/svg">
<path fill-rule="evenodd" clip-rule="evenodd" d="M22.4773 0.188813C22.7766 -0.0123158 23.2755 -0.0123158 23.5749 0.188813C23.8743 0.389942 24.0738 0.792199 23.974 1.19446C23.6747 2.60236 22.9762 3.9097 21.9783 5.0159V5.51873C21.9783 11.0498 19.5835 15.6757 15.2927 18.0893C13.0974 19.3966 10.7025 20 8.20787 20C5.71323 20 3.01901 19.296 0.524358 17.8881C0.125215 17.687 -0.0743571 17.1842 0.0254288 16.7819C0.125215 16.3797 0.624144 16.078 1.02329 16.078C2.71965 16.078 4.41601 15.7763 5.9128 15.0723C2.22072 12.7594 1.22286 9.5413 1.12307 7.02719C1.02329 4.11082 2.02115 1.69728 2.12093 1.59671C2.22072 1.29502 2.52008 0.993328 2.91922 0.993328C3.31836 0.993328 3.61772 1.09389 3.81729 1.39559C5.51365 3.80913 8.10809 5.3176 11.0019 5.51873C11.0019 3.9097 11.7004 2.40123 12.9976 1.39559C15.0931 -0.515138 18.1865 -0.414573 20.1822 1.39559C20.9805 1.09389 21.7788 0.691635 22.4773 0.188813ZM19.8828 4.91534C19.8828 4.61365 19.9826 4.21139 20.1822 4.01026C20.282 3.85941 20.3817 3.73371 20.4815 3.608C20.5813 3.4823 20.6811 3.35659 20.7809 3.20574C20.6811 3.25603 20.5564 3.28117 20.4316 3.30631C20.3069 3.33145 20.1822 3.35659 20.0824 3.40687C19.783 3.50744 19.3839 3.40687 19.0845 3.10518C17.8871 1.69728 15.592 1.49615 14.195 2.80349C13.3967 3.50744 12.9976 4.51308 12.9976 5.51873V6.52437C12.9976 7.02719 12.4987 7.53001 11.9997 7.53001C8.7068 7.63058 5.61344 6.32324 3.41815 4.11082C2.81943 6.62493 2.61986 11.5526 8.40744 14.1673C8.7068 14.2678 9.00616 14.5695 9.00616 14.9718C9.00616 15.374 8.90637 15.6757 8.50723 15.8769C7.40958 16.6814 6.21215 17.1842 4.91494 17.5865C8.20787 18.391 11.5008 17.9887 14.2948 16.3797C17.8871 14.2678 19.9826 10.3458 19.9826 5.51873C19.9826 5.3176 19.9826 5.11647 19.8828 4.91534Z" fill="#E9F4FF"/>
</svg>
