<svg width="15" height="11" viewBox="0 0 15 11" fill="none" xmlns="http://www.w3.org/2000/svg">
<path fill-rule="evenodd" clip-rule="evenodd" d="M7.7842 7.00635C6.7172 7.00635 5.8272 7.73135 5.5802 8.70535L7.8882 10.9743L10.0242 8.87435C9.8442 7.81535 8.9132 7.00635 7.7842 7.00635Z" fill="black"/>
<path fill-rule="evenodd" clip-rule="evenodd" d="M7.7842 3.7959C5.8292 3.7959 4.1142 4.7929 3.1272 6.2949L4.5512 7.6929C5.1382 6.5139 6.3582 5.6959 7.7842 5.6959C9.2642 5.6959 10.5342 6.5729 11.0922 7.8259L12.5202 6.4219C11.5482 4.8499 9.7932 3.7959 7.7842 3.7959Z" fill="black"/>
<path opacity="0.5" fill-rule="evenodd" clip-rule="evenodd" d="M7.7842 0.405762C4.8792 0.405762 2.3022 1.76576 0.658203 3.86776L2.0902 5.27476C3.3562 3.52476 5.4322 2.37876 7.7842 2.37876C10.1892 2.37876 12.3102 3.57376 13.5672 5.39176L15.0002 3.98476C13.3602 1.81676 10.7432 0.405762 7.7842 0.405762Z" fill="black"/>
</svg>
